<?xml version="1.0" encoding="UTF-8"?>
<svg width="200px" height="28px" viewBox="0 0 200 28" version="1.1" xmlns="http://www.w3.org/2000/svg" xmlns:xlink="http://www.w3.org/1999/xlink">
    <!-- Generator: Sketch 59 (86127) - https://sketch.com -->
    <title>beyondbit_logo</title>
    <desc>Created with Sketch.</desc>
    <defs>
        <polygon id="path-1" points="0 27.9730244 199.888718 27.9730244 199.888718 0 0 0"></polygon>
    </defs>
    <g id="页面1" stroke="none" stroke-width="1" fill="none" fill-rule="evenodd">
        <g id="login复制" transform="translate(-40.000000, -84.000000)">
            <g id="beyondbit_logo" transform="translate(40.000000, 84.000000)">
                <path d="M16.4307009,3.86937805 L14.173265,1.69989024 C14.173265,1.69989024 12.5917265,0.410865854 10.9985641,2.12706098 C9.32642735,3.92793902 0.378905983,12.7651829 0.378905983,12.7651829 C0.378905983,12.7651829 -0.606735043,14.1624512 0.601470085,15.6549878 L11.3801026,26.2934512 C11.3801026,26.2934512 13.0971966,27.6587927 14.6865983,25.8804512 L25.2110427,15.3374268 C25.2110427,15.3374268 26.5465983,13.2415244 23.9710427,11.6219634 C23.9710427,11.6219634 21.7667692,10.4155732 18.9792479,11.5584512 C18.9792479,11.5584512 17.9472821,11.8879634 16.4199316,13.2097683 C16.4199316,13.2097683 14.2895043,14.9881098 12.8110427,13.9401585 L21.2048889,5.65164634 C21.2048889,5.65164634 22.0315556,4.95284146 22.7628376,5.68340244 L30.3619829,13.3687195 C30.3619829,13.3687195 30.9971966,14.316622 30.1710427,14.8745732 L22.667453,22.4507927 C22.667453,22.4507927 21.8452308,23.2081585 20.6961709,21.8793537 L18.4937778,24.2011341 L20.8869402,26.325378 C20.8869402,26.325378 22.5665983,27.504622 23.7802735,26.1030854 L34.3997607,15.3688415 C34.3997607,15.3688415 35.3854017,14.0673537 34.3681368,12.7015 L23.4431795,1.74889024 C23.4431795,1.74889024 22.2529231,0.675329268 20.5558291,1.79515854 L9.88557265,12.3525244 C9.88557265,12.3525244 8.20061538,14.321061 10.3944615,16.0043049 C10.3944615,16.0043049 13.7435214,18.4922073 18.0997607,15.4649634 C18.0997607,15.4649634 20.3423248,13.8122805 21.5761709,13.8452317 L21.9893333,14.0036707 L13.6040342,22.3982073 C13.6040342,22.3982073 12.7539487,23.2648415 11.7671111,22.1059146 L4.37976068,14.6929146 C4.37976068,14.6929146 3.70266667,14.022622 4.47018803,13.1532561 L12.1431795,5.61989024 C12.1431795,5.61989024 12.9423248,4.96223171 13.7202735,5.73086585 L14.1650598,6.1322561 L16.4307009,3.86937805" id="Fill-1" fill="#0071BB"></path>
                <path d="M35.9142906,4.14256585 C35.9142906,5.77937073 34.5857436,7.10629756 32.9469402,7.10629756 C31.3079658,7.10629756 29.9794188,5.77937073 29.9794188,4.14256585 C29.9794188,2.50576098 31.3079658,1.17883415 32.9469402,1.17883415 C34.5857436,1.17883415 35.9142906,2.50576098 35.9142906,4.14256585 Z" id="Stroke-3" stroke="#0973B9" stroke-width="0.5" stroke-linecap="round" stroke-linejoin="round"></path>
                <path d="M32.0694017,2.84973415 L32.0694017,3.94139268 L32.8921368,3.94139268 C33.2991453,3.94429512 33.5989744,3.90178293 33.791453,3.81368537 C33.9837607,3.72575854 34.08,3.58644146 34.08,3.39556341 C34.08,3.20468537 33.9849573,3.06605122 33.7947009,2.97949024 C33.6044444,2.89292927 33.3102564,2.84973415 32.9121368,2.84973415 L32.0694017,2.84973415 Z M31.5916239,2.5366122 L32.5405128,2.5366122 C33.071453,2.5366122 33.4340171,2.55214878 33.6288889,2.58356341 C33.8234188,2.61480732 33.9904274,2.66619756 34.1297436,2.73790488 C34.2692308,2.80944146 34.3786325,2.90197805 34.4582906,3.01517317 C34.5379487,3.12853902 34.5777778,3.2538561 34.5777778,3.39095366 C34.5777778,3.66549024 34.4340171,3.88095366 34.1463248,4.03751463 C33.8588034,4.19407561 33.4517949,4.26646585 32.9254701,4.25451463 L34.6441026,5.7485878 L34.0535043,5.7485878 L32.3413675,4.25451463 L32.0694017,4.25451463 L32.0694017,5.7485878 L31.5916239,5.7485878 L31.5916239,2.5366122 Z" id="Fill-5" fill="#0973B9"></path>
                <path d="M32.0694017,2.84973415 L32.0694017,3.94139268 L32.8921368,3.94139268 C33.2991453,3.94429512 33.5989744,3.90178293 33.791453,3.81368537 C33.9837607,3.72575854 34.08,3.58644146 34.08,3.39556341 C34.08,3.20468537 33.9849573,3.06605122 33.7947009,2.97949024 C33.6044444,2.89292927 33.3102564,2.84973415 32.9121368,2.84973415 L32.0694017,2.84973415 Z M31.5916239,2.5366122 L32.5405128,2.5366122 C33.071453,2.5366122 33.4340171,2.55214878 33.6288889,2.58356341 C33.8234188,2.61480732 33.9904274,2.66619756 34.1297436,2.73790488 C34.2692308,2.80944146 34.3786325,2.90197805 34.4582906,3.01517317 C34.5379487,3.12853902 34.5777778,3.2538561 34.5777778,3.39095366 C34.5777778,3.66549024 34.4340171,3.88095366 34.1463248,4.03751463 C33.8588034,4.19407561 33.4517949,4.26646585 32.9254701,4.25451463 L34.6441026,5.7485878 L34.0535043,5.7485878 L32.3413675,4.25451463 L32.0694017,4.25451463 L32.0694017,5.7485878 L31.5916239,5.7485878 L31.5916239,2.5366122 Z" id="Stroke-7" stroke="#0973B9" stroke-width="0.5"></path>
                <path d="M45.5766667,6.11706098 C46.8088034,6.11706098 47.7992308,6.11415854 48.5482906,6.1080122 C49.2971795,6.10203659 49.8951282,6.0929878 50.3421368,6.08086585 C50.7889744,6.06891463 51.124188,6.05371951 51.3477778,6.03562195 C51.5711966,6.01752439 51.7735897,5.99652439 51.9547863,5.97228049 L51.9547863,7.16671951 C51.7855556,7.14264634 51.5923932,7.12147561 51.3749573,7.10337805 C51.1575214,7.08528049 50.8252137,7.0735 50.3783761,7.06718293 C49.9313675,7.06120732 49.3303419,7.05540244 48.5754701,7.04908537 C47.8204274,7.04310976 46.8207692,7.04003659 45.5766667,7.04003659 L45.5766667,14.568622 C46.7482906,14.568622 47.7147863,14.5657195 48.475812,14.5595732 C49.2368376,14.5535976 49.8891453,14.547622 50.432906,14.5414756 C50.9763248,14.5355 51.4657265,14.523378 51.9005983,14.5052805 C52.3354701,14.4871829 52.8123932,14.4600366 53.3320513,14.4238415 L53.3320513,15.636378 C52.9696581,15.6242561 52.6311966,15.6092317 52.3171795,15.5911341 C52.0029915,15.5730366 51.6858974,15.5576707 51.3660684,15.5458902 C51.0457265,15.5337683 50.7047009,15.5247195 50.3421368,15.5187439 C49.9797436,15.5124268 49.5689744,15.506622 49.11,15.5006463 C48.6508547,15.4943293 48.1253846,15.4915976 47.5335897,15.4915976 L45.4679487,15.4915976 C44.6344444,15.4915976 43.864359,15.4943293 43.1576923,15.5006463 C42.4510256,15.506622 41.7835043,15.5156707 41.1554701,15.5277927 C40.527265,15.5395732 39.9262393,15.554939 39.3525641,15.5730366 C38.7787179,15.5911341 38.2019658,15.6119634 37.6221368,15.636378 L37.6221368,14.4238415 C38.1657265,14.4480854 38.6850427,14.4690854 39.1804274,14.4871829 C39.675641,14.5052805 40.1860684,14.5204756 40.7115385,14.5324268 C41.2370085,14.5445488 41.795641,14.5535976 42.3876068,14.5595732 C42.9794017,14.5657195 43.6438462,14.568622 44.3807692,14.568622 L44.3807692,2.87759756 C44.3807692,2.26228049 44.3717094,1.79481707 44.3535897,1.47503659 C44.3354701,1.15542683 44.3082906,0.874914634 44.2720513,0.6335 C44.8638462,0.778280488 45.3711966,0.838719512 45.7941026,0.81447561 C45.9752991,0.802695122 46.0718803,0.832573171 46.0840171,0.904963415 C46.0959829,0.977353659 46.035641,1.05589024 45.9028205,1.14023171 C45.6853846,1.27306098 45.5766667,1.56859756 45.5766667,2.0270122 L45.5766667,6.11706098 Z" id="Fill-9" fill="#000000"></path>
                <path d="M66.1969231,8.77740244 C66.0155556,8.47589024 65.7408547,8.15610976 65.3724786,7.81823171 C65.0039316,7.48052439 64.6567521,7.19693902 64.3305983,6.96764634 L64.9104274,6.27993902 C65.0673504,6.37657317 65.2365812,6.49710976 65.4176068,6.64189024 C65.5989744,6.78667073 65.782906,6.9405 65.9704274,7.10337805 C66.1576068,7.2662561 66.3386325,7.43528049 66.5138462,7.61010976 C66.6888889,7.78510976 66.8490598,7.94491463 66.994188,8.08969512 L66.1969231,8.77740244 Z M66.1425641,12.9217439 C66.0579487,12.8012073 65.9401709,12.6564268 65.7892308,12.4874024 C65.6379487,12.3185488 65.4748718,12.146622 65.3,11.971622 C65.1247863,11.7969634 64.9466667,11.6277683 64.7654701,11.4648902 C64.5841026,11.3020122 64.4210256,11.1662805 64.2762393,11.0576951 L64.9647863,10.3880854 C65.0852991,10.4847195 65.2333333,10.6052561 65.4087179,10.7500366 C65.5835897,10.8948171 65.7620513,11.0517195 65.9432479,11.2205732 C66.1244444,11.3895976 66.2994872,11.5615244 66.4687179,11.7363537 C66.6376068,11.9113537 66.788547,12.0711585 66.9217094,12.215939 L66.1425641,12.9217439 Z M68.534359,8.99457317 L68.5887179,5.7370122 L62.8810256,5.7370122 L62.6817094,8.99457317 L68.534359,8.99457317 Z M62.6273504,9.8632561 L62.4280342,13.1570122 L68.4798291,13.1570122 L68.534359,9.8632561 L62.6273504,9.8632561 Z M61.9567521,4.79593902 C62.4037607,4.82018293 62.9625641,4.84118293 63.6329915,4.85928049 C64.3034188,4.87737805 65.037265,4.88642683 65.8345299,4.88642683 C66.6680342,4.88642683 67.4078632,4.87737805 68.054188,4.85928049 C68.7003419,4.84118293 69.2470085,4.82018293 69.6940171,4.79593902 L69.5852991,8.99457317 C70.1044444,8.99457317 70.5333333,8.98859756 70.8717949,8.97647561 C71.2097436,8.96452439 71.5358974,8.94642683 71.8502564,8.92218293 L71.8502564,9.93564634 C71.5358974,9.91157317 71.2097436,9.89347561 70.8717949,9.88135366 C70.5333333,9.86940244 70.0984615,9.8632561 69.5671795,9.8632561 L69.4947009,13.1570122 C69.8811966,13.1570122 70.2131624,13.1510366 70.4912821,13.1389146 C70.7688889,13.1271341 71.0408547,13.1088659 71.3066667,13.084622 L71.3066667,14.0799878 C71.0408547,14.0559146 70.7659829,14.0378171 70.4820513,14.0256951 C70.1981197,14.0137439 69.862906,14.0075976 69.4765812,14.0075976 C69.4642735,14.6109634 69.4222222,15.0873049 69.3495726,15.4373049 C69.277265,15.7871341 69.1350427,16.0553537 68.9239316,16.2426463 C68.7124786,16.4295976 68.4044444,16.5562805 67.9998291,16.6226951 C67.5950427,16.6887683 67.0605128,16.7403293 66.3962393,16.7765244 C66.4203419,16.5231585 66.3962393,16.3059878 66.3237607,16.1250122 C66.2511111,15.9440366 66.1123077,15.7268659 65.9070085,15.4735 C66.4504274,15.5699634 66.8882051,15.6242561 67.2206838,15.636378 C67.5528205,15.6483293 67.8095726,15.6001829 67.9907692,15.4915976 C68.1719658,15.3830122 68.2926496,15.2080122 68.3531624,14.9667683 C68.4135043,14.7255244 68.4497436,14.4057439 68.4618803,14.0075976 L64.4210256,14.0075976 C63.8413675,14.0075976 63.2765812,14.0197195 62.7270085,14.0437927 C62.177094,14.0680366 61.7150427,14.1102073 61.3408547,14.1704756 L61.6307692,9.8632561 C61.2321368,9.8632561 60.9059829,9.86940244 60.6521368,9.88135366 C60.3986325,9.89347561 60.1326496,9.91157317 59.8548718,9.93564634 L59.8548718,8.92218293 C60.1449573,8.94642683 60.4167521,8.96452439 60.6704274,8.97647561 C60.9239316,8.98859756 61.2622222,8.99457317 61.6849573,8.99457317 L61.9567521,4.79593902 Z M67.1210256,2.31657317 C67.8818803,2.31657317 68.6068376,2.30462195 69.2953846,2.28037805 C69.9837607,2.25630488 70.5516239,2.22608537 70.9986325,2.18989024 L70.9986325,3.33003659 C70.5516239,3.29384146 69.9837607,3.26396341 69.2953846,3.23954878 C68.6068376,3.21547561 67.8818803,3.20335366 67.1210256,3.20335366 L62.6454701,3.20335366 C62.3434188,3.74628049 62.0352137,4.2530122 61.7211966,4.72354878 C61.4070085,5.19408537 61.0569231,5.67076829 60.6704274,6.1532561 C60.5254701,5.99652439 60.3682051,5.85771951 60.1993162,5.7370122 C60.0300855,5.61647561 59.842735,5.51386585 59.6376068,5.42935366 C60.4952137,4.63306098 61.1805128,3.79459756 61.694188,2.91379268 C62.2073504,2.03332927 62.5668376,1.06784146 62.7723077,0.0181829268 C62.9897436,0.162963415 63.2131624,0.277695122 63.442735,0.362036585 C63.6719658,0.44654878 63.8894017,0.500841463 64.0950427,0.524914634 C64.2276923,0.549158537 64.2822222,0.597304878 64.2581197,0.669695122 C64.2338462,0.742085366 64.1553846,0.820621951 64.0225641,0.904963415 C63.9620513,0.941158537 63.9165812,0.968304878 63.8864957,0.986402439 C63.8564103,1.0045 63.8169231,1.04069512 63.7688889,1.0949878 C63.7205128,1.14928049 63.6659829,1.23379268 63.605812,1.34835366 C63.5451282,1.46308537 63.4608547,1.62886585 63.3519658,1.84603659 C63.3158974,1.93054878 63.2765812,2.00891463 63.234359,2.08130488 C63.1917949,2.15369512 63.1526496,2.23240244 63.1164103,2.31657317 L67.1210256,2.31657317 Z M59.6376068,3.71008537 C59.1664957,3.28786585 58.6740171,2.90781707 58.1608547,2.56993902 C57.6471795,2.23240244 57.034188,1.87028049 56.3215385,1.48408537 L56.9015385,0.597304878 C57.5294017,0.947304878 58.1394872,1.32120732 58.7316239,1.71935366 C59.3232479,2.1175 59.8548718,2.49157317 60.3261538,2.84140244 L59.6376068,3.71008537 Z M59.6193162,10.3156951 C59.1964103,11.0757927 58.7557265,11.9385 58.2967521,12.9036463 C57.8376068,13.8689634 57.3364103,15.0149146 56.7926496,16.3421829 C56.5871795,16.1367927 56.3820513,15.9739146 56.1767521,15.8535488 C55.9712821,15.7328415 55.7659829,15.6302317 55.5605128,15.5458902 C55.8623932,15.0994268 56.1676923,14.6200122 56.4757265,14.1071341 C56.7837607,13.5944268 57.0736752,13.0755732 57.3454701,12.5507439 C57.617265,12.0259146 57.8647863,11.5132073 58.0882051,11.0124512 C58.3116239,10.5118659 58.5018803,10.0442317 58.6589744,9.60989024 C58.8282051,9.81510976 58.9789744,9.96279268 59.1121368,10.0532805 C59.2449573,10.1437683 59.4138462,10.2313537 59.6193162,10.3156951 L59.6193162,10.3156951 Z M58.6589744,8.01730488 C58.2,7.60720732 57.6683761,7.21503659 57.0646154,6.84096341 C56.4603419,6.46706098 55.8868376,6.16537805 55.3432479,5.93608537 L55.9049573,5.01310976 C56.1584615,5.14593902 56.4333333,5.29669512 56.7294017,5.46554878 C57.0252991,5.63457317 57.3273504,5.81247561 57.6353846,5.99942683 C57.9434188,6.18654878 58.2483761,6.37657317 58.5504274,6.5695 C58.8521368,6.76259756 59.1239316,6.94357317 59.365812,7.11242683 L58.6589744,8.01730488 Z" id="Fill-11" fill="#000000"></path>
                <path d="M78.0652308,10.6595488 L85.0594188,10.6595488 L85.5305299,6.40662195 L78.9712137,6.40662195 L78.0652308,10.6595488 Z M79.2430085,11.600622 C78.6872821,11.6127439 78.2071111,11.6308415 77.8024957,11.6549146 C77.3977094,11.6793293 77.0565128,11.7032317 76.778735,11.7273049 L78.7356581,2.84140244 C77.950359,2.84140244 77.2072821,2.85659756 76.5069402,2.88664634 C75.8062564,2.91686585 75.2264274,2.95613415 74.767453,3.00428049 L74.767453,1.75554878 C75.0211282,1.77979268 75.3351453,1.80386585 75.7096752,1.82793902 C76.0840342,1.85235366 76.5459145,1.87045122 77.0958291,1.88223171 C77.6454017,1.89435366 78.2977094,1.90340244 79.0527521,1.90937805 C79.807453,1.91569512 80.7043761,1.91842683 81.7436923,1.91842683 C82.7944615,1.91842683 83.7004444,1.91569512 84.4614701,1.90937805 C85.2224957,1.90340244 85.8749744,1.89435366 86.4183932,1.88223171 C86.9619829,1.87045122 87.4178803,1.85235366 87.7864274,1.82793902 C88.1546325,1.80386585 88.4659145,1.77979268 88.7195897,1.75554878 L88.7195897,3.00428049 C88.2001026,2.9440122 87.5354872,2.9020122 86.7264274,2.87759756 C85.9170256,2.85352439 85.0291624,2.84140244 84.0628376,2.84140244 L79.7322393,2.84140244 L79.1705299,5.48364634 L85.4401026,5.48364634 C85.7177094,5.48364634 85.9563419,5.47767073 86.1556581,5.46554878 C86.3549744,5.45359756 86.5571966,5.4355 86.7626667,5.4112561 C86.7264274,5.5442561 86.693094,5.70696341 86.6630085,5.89989024 C86.6327521,6.0929878 86.6023248,6.29530488 86.5725812,6.50615854 C86.5421538,6.71735366 86.5118974,6.93145122 86.481812,7.14862195 C86.4515556,7.36579268 86.430359,7.56486585 86.4183932,7.74584146 L85.7117265,14.2609634 C86.0257436,14.2609634 86.3609573,14.2582317 86.7173675,14.2519146 C87.0734359,14.245939 87.4269402,14.2338171 87.7773675,14.2157195 C88.1276239,14.197622 88.4659145,14.1795244 88.7920684,14.1614268 C89.1182222,14.1433293 89.4081368,14.1223293 89.661812,14.0980854 L89.661812,15.3830122 C89.3720684,15.3585976 89.0154872,15.3346951 88.5927521,15.310622 C88.1696752,15.286378 87.6443761,15.2682805 87.0163419,15.2563293 C86.3879658,15.2442073 85.6419829,15.2351585 84.7785641,15.2291829 C83.9148034,15.2230366 82.8970256,15.2201341 81.7254017,15.2201341 C80.5412991,15.2201341 79.5207863,15.2230366 78.6631795,15.2291829 C77.8052308,15.2351585 77.0624957,15.2442073 76.4344615,15.2563293 C75.8062564,15.2682805 75.2807863,15.286378 74.8580513,15.310622 C74.4351453,15.3346951 74.078906,15.3585976 73.7889915,15.3830122 L73.7889915,14.0980854 C74.0908718,14.1223293 74.4322393,14.1433293 74.8127521,14.1614268 C75.193265,14.1795244 75.5830085,14.197622 75.981641,14.2157195 C76.3802735,14.2338171 76.7725812,14.245939 77.1592479,14.2519146 C77.5457436,14.2582317 77.9021538,14.2609634 78.2283077,14.2609634 L84.678906,14.2609634 L84.9688205,11.600622 L79.2430085,11.600622 Z" id="Fill-13" fill="#000000"></path>
                <path d="M101.58453,3.98149756 C101.318718,3.48705854 101.022821,3.02232683 100.696838,2.58798537 C100.370513,2.1536439 99.9959829,1.74371707 99.5732479,1.35735122 L100.461111,0.705839024 C100.896154,1.16442439 101.282479,1.61071707 101.620769,2.04505854 C101.958718,2.4794 102.266923,2.92005854 102.544872,3.36618049 L101.58453,3.98149756 Z M103.269658,4.3796439 C103.813248,3.61954634 104.251026,2.91698537 104.583333,2.27127805 C104.91547,1.62608293 105.172222,1.03159512 105.353419,0.488668293 C105.522479,0.621668293 105.691368,0.730253659 105.86094,0.81442439 C106.029829,0.898936585 106.217009,0.977302439 106.422479,1.04969268 C106.65188,1.13420488 106.763675,1.2156439 106.757863,1.29400976 C106.751538,1.37271707 106.627778,1.45996098 106.386239,1.55642439 C106.325556,1.58066829 106.253248,1.63513171 106.168803,1.71930244 C106.084188,1.80398537 105.96641,1.94859512 105.81547,2.1536439 C105.664359,2.35903415 105.474103,2.63954634 105.244701,2.99518049 C105.015128,3.35132683 104.725214,3.8126439 104.374957,4.3796439 C104.954786,4.36786341 105.444017,4.34976585 105.84265,4.32535122 C106.241282,4.30144878 106.627778,4.26525366 107.002308,4.21676585 L107.002308,5.3569122 C106.567436,5.29681463 106.069145,5.25737561 105.507436,5.23927805 C104.945726,5.22118049 104.278205,5.21213171 103.505214,5.21213171 L103.505214,8.79544878 C103.915812,8.79544878 104.335641,8.79271707 104.764701,8.7864 C105.193077,8.78042439 105.604017,8.76830244 105.996838,8.75020488 C106.388974,8.73210732 106.745556,8.71400976 107.065726,8.6959122 C107.385726,8.67781463 107.654615,8.65698537 107.872051,8.63257073 L107.872051,9.84510732 C107.449145,9.79696098 106.872393,9.76093659 106.141624,9.73652195 C105.410684,9.71244878 104.55,9.70032683 103.559744,9.70032683 C103.885726,10.412278 104.217863,11.0456927 104.556154,11.6005707 C104.894103,12.1556195 105.250684,12.659278 105.625385,13.1117171 C105.999573,13.5641561 106.407265,13.9776683 106.848291,14.3514 C107.289145,14.7256439 107.775299,15.0753024 108.306923,15.4010585 C108.137692,15.5096439 107.971709,15.6663756 107.808632,15.8715951 C107.645556,16.0766439 107.497521,16.3119122 107.364701,16.5774 C106.857521,16.1550098 106.404359,15.7387659 106.005726,15.3286683 C105.607094,14.9187415 105.244701,14.4934488 104.918547,14.0527902 C104.592564,13.6126439 104.296325,13.1451805 104.030855,12.6502293 C103.764872,12.1556195 103.517179,11.6186683 103.287778,11.0395463 C103.046068,12.1860098 102.592906,13.2112537 101.928974,14.1161317 C101.264359,15.0210098 100.382479,15.8354 99.2833333,16.5593024 C99.1383761,16.3421317 98.9812821,16.1640585 98.8122222,16.0254244 C98.6429915,15.8866195 98.4195726,15.7689854 98.1417949,15.672522 C98.9510256,15.2381805 99.6245299,14.7947902 100.162308,14.3423512 C100.699573,13.8899122 101.131709,13.4193756 101.457692,12.9307415 C101.783846,12.4421073 102.022308,11.9326439 102.173419,11.4014976 C102.324359,10.8708634 102.418034,10.3038634 102.454274,9.70032683 C101.644872,9.70032683 100.920085,9.70937561 100.279915,9.72747317 C99.6395726,9.74557073 99.09,9.78500976 98.6311966,9.84510732 L98.6311966,8.63257073 C99.0537607,8.6808878 99.6064103,8.72032683 100.288974,8.75020488 C100.971368,8.78042439 101.699231,8.79544878 102.472393,8.79544878 L102.472393,5.21213171 C101.747607,5.21213171 101.116325,5.22425366 100.578889,5.24832683 C100.041282,5.27257073 99.5611111,5.30893659 99.1383761,5.3569122 L99.1383761,4.21676585 C99.6094872,4.27737561 100.198547,4.31937561 100.905043,4.34344878 C101.611709,4.36786341 102.400085,4.3796439 103.269658,4.3796439 L103.269658,4.3796439 Z M94.0286325,12.9035951 C94.4392308,12.8194244 94.8713675,12.7289366 95.324188,12.6321317 C95.7771795,12.535839 96.2511966,12.421278 96.7465812,12.288278 L96.7465812,9.82700976 L94.0286325,9.82700976 L94.0286325,12.9035951 Z M94.0286325,8.97642439 L96.7465812,8.97642439 L96.7465812,6.2798878 L94.0286325,6.2798878 L94.0286325,8.97642439 Z M94.0286325,5.4474 L96.7465812,5.4474 L96.7465812,2.69657073 L94.0286325,2.69657073 L94.0286325,5.4474 Z M92.9776923,2.69657073 C92.7118803,2.69657073 92.4913675,2.70561951 92.3163248,2.72371707 C92.1411111,2.74181463 91.9387179,2.77527805 91.7093162,2.82325366 L91.7093162,1.66500976 C91.987094,1.71332683 92.4038462,1.74644878 92.9595726,1.76454634 C93.5151282,1.7826439 94.3303419,1.79169268 95.4057265,1.79169268 C96.0335897,1.79169268 96.5655556,1.78896098 97.0004274,1.7826439 C97.4352991,1.77666829 97.8002564,1.77086341 98.0966667,1.76454634 C98.3923932,1.75857073 98.6311966,1.74644878 98.8122222,1.72835122 C98.9934188,1.71025366 99.1383761,1.68942439 99.247094,1.66500976 L99.247094,2.82325366 C99.1141026,2.79935122 98.9238462,2.77527805 98.6763248,2.75086341 C98.4286325,2.72679024 98.1236752,2.71466829 97.7612821,2.71466829 L97.7612821,12.0168146 C98.0390598,11.9444244 98.3139316,11.8693024 98.5857265,11.7905951 C98.8575214,11.7122293 99.1320513,11.6307902 99.4101709,11.546278 C99.3255556,11.8600829 99.3313675,12.2041073 99.4282906,12.577839 C99.1383761,12.6384488 98.8575214,12.7017902 98.5857265,12.7678634 C98.3139316,12.8344488 98.0390598,12.8977902 97.7612821,12.9578878 C97.7612821,13.4890341 97.7640171,13.9474488 97.7705128,14.3333024 C97.7763248,14.7196683 97.7853846,15.0572049 97.7976923,15.3467659 C97.8094872,15.6363268 97.8274359,15.8925951 97.8518803,16.1159122 C97.8759829,16.3390585 97.8999145,16.5593024 97.924359,16.7764732 L96.6017949,16.7764732 C96.6380342,16.4507171 96.6710256,16.0163756 96.701453,15.4734488 C96.7311966,14.930522 96.7465812,14.1767415 96.7465812,13.2112537 C95.538547,13.5008146 94.4999145,13.7604976 93.63,13.9894488 C92.7602564,14.2187415 92.1742735,14.3875951 91.8725641,14.4961805 C91.8481197,14.2428146 91.7999145,14.0377659 91.7274359,13.8808634 C91.6549573,13.7241317 91.5341026,13.5250585 91.3650427,13.2836439 C91.5703419,13.2836439 91.8089744,13.2686195 92.0807692,13.2384 C92.3525641,13.2083512 92.6515385,13.163278 92.9776923,13.1026683 L92.9776923,2.69657073 Z" id="Fill-15" fill="#000000"></path>
                <path d="M120.718991,6.89527317 C121.153863,5.66463902 121.509932,4.43400488 121.788051,3.20337073 C122.210786,3.44478537 122.585316,3.58341951 122.91147,3.61961463 C123.044291,3.64385854 123.119846,3.68910244 123.137795,3.75534634 C123.156085,3.82176098 123.09865,3.89722439 122.965829,3.98156585 C122.905145,4.01776098 122.832667,4.11439512 122.748393,4.27112683 C122.663778,4.42802927 122.558137,4.66927317 122.431299,4.99502927 C122.304291,5.32078537 122.147197,5.74010244 121.960188,6.25280976 C121.772667,6.7656878 121.552496,7.39005366 121.298821,8.12590732 C121.709248,9.01883415 122.087026,9.8844439 122.431299,10.7229073 C122.775402,11.5615415 123.050274,12.2946634 123.255744,12.921761 L122.259162,13.3561024 C122.029419,12.6683951 121.793863,12.0109073 121.552496,11.3834683 C121.310615,10.7562 121.057111,10.1347366 120.79147,9.51941951 C120.670615,9.80898049 120.53147,10.128761 120.374547,10.4785902 C120.217453,10.8285902 120.054376,11.1784195 119.885487,11.5282488 C119.716085,11.8782488 119.543949,12.228078 119.369077,12.5779073 C119.193692,12.9279073 119.027538,13.2475171 118.870615,13.537078 C118.701385,13.3922976 118.526513,13.2777366 118.345145,13.1932244 C118.16412,13.1088829 117.976598,13.0424683 117.783607,12.9941512 C118.230274,12.3668829 118.66241,11.6458829 119.078991,10.8314927 C119.495915,10.0171024 119.879162,9.15149268 120.229761,8.23449268 C119.915402,7.5227122 119.583265,6.81998049 119.233179,6.12612683 C118.882581,5.4324439 118.514376,4.74166341 118.12788,4.0539561 L118.997624,3.51102927 C119.553179,4.48829756 120.126855,5.61649268 120.718991,6.89527317 M115.51865,7.36580976 C115.977624,5.9784439 116.315744,4.5547122 116.53335,3.09478537 C116.931983,3.34815122 117.336598,3.47483415 117.747197,3.47483415 C117.843949,3.47483415 117.90412,3.51410244 117.928564,3.59246829 C117.952496,3.67100488 117.898137,3.75841951 117.765487,3.85488293 C117.704803,3.89107805 117.650444,3.95441951 117.60241,4.04490732 C117.553863,4.13539512 117.472496,4.34351707 117.357795,4.66927317 C117.242752,4.99502927 117.086,5.47461463 116.886684,6.10802927 C116.687368,6.7414439 116.412496,7.61917561 116.062239,8.74122439 C116.376256,9.5134439 116.666,10.2614195 116.931983,10.985322 C117.197453,11.7092244 117.433009,12.3607366 117.638479,12.9398585 L116.55147,13.4284927 C116.418308,12.921761 116.264291,12.3940293 116.089419,11.8449561 C115.914205,11.2960537 115.723778,10.7319561 115.51865,10.1528341 C115.264974,10.744078 114.971983,11.3653707 114.639846,12.0168829 C114.307368,12.6683951 113.996598,13.2355659 113.706684,13.7180537 C113.356256,13.4527366 112.957624,13.2777366 112.510615,13.1932244 C112.993863,12.5900293 113.443778,11.9144439 113.860701,11.1662976 C114.277282,10.418322 114.660872,9.61605366 115.011128,8.75932195 C114.660872,7.84249268 114.298308,6.96476098 113.92412,6.12612683 C113.54959,5.28766341 113.187026,4.56683415 112.83694,3.96346829 L113.797282,3.45673659 C114.050786,3.99966341 114.325658,4.60593171 114.621726,5.27554146 C114.917624,5.94515122 115.216598,6.64190732 115.51865,7.36580976 M124.886513,1.21263902 C124.862068,1.39361463 124.841043,1.58363902 124.823094,1.7827122 C124.804803,1.98178537 124.792667,2.1989561 124.786855,2.43422439 C124.780701,2.66949268 124.774718,2.93498049 124.768564,3.23051707 C124.76241,3.52622439 124.759675,3.8612 124.759675,4.23493171 L124.759675,14.3333707 C124.759675,14.7919561 124.726171,15.1595415 124.660017,15.437322 C124.59335,15.714761 124.451641,15.9350049 124.234034,16.0978829 C124.016769,16.260761 123.696598,16.3812976 123.273692,16.4598341 C122.850957,16.5380293 122.289248,16.6015415 121.588735,16.6498585 C121.588735,16.3602976 121.558308,16.1129073 121.498137,15.9078585 C121.437453,15.7024683 121.310615,15.4735171 121.117624,15.2201512 C121.673009,15.2563463 122.117111,15.2682976 122.449419,15.2563463 C122.781385,15.2440537 123.035231,15.1930049 123.210274,15.1025171 C123.385487,15.0120293 123.497282,14.8733951 123.545658,14.6862732 C123.593692,14.499322 123.618137,14.2490293 123.618137,13.9352244 L123.618137,2.38898049 L112.420188,2.38898049 L112.420188,16.5231756 L111.043094,16.5231756 C111.091299,16.1974195 111.130444,15.9015415 111.160872,15.6363951 C111.190957,15.3709073 111.21506,15.1115659 111.23335,14.8582 C111.251299,14.6048341 111.263436,14.3424195 111.26959,14.0709561 C111.275573,13.7994927 111.278479,13.5008829 111.278479,13.1751268 L111.278479,4.21683415 C111.278479,3.83080976 111.275573,3.49293171 111.26959,3.20337073 C111.263436,2.91380976 111.257282,2.65139512 111.251299,2.41612683 C111.245145,2.18085854 111.23335,1.96676098 111.21506,1.77366341 C111.197111,1.58073659 111.175915,1.39361463 111.151641,1.21263902 C111.477795,1.24883415 111.837111,1.27905366 112.229932,1.30312683 C112.622239,1.32737073 113.084291,1.34837073 113.615915,1.36646829 C114.147538,1.38456585 114.766684,1.3966878 115.47335,1.40266341 C116.179846,1.40880976 117.010444,1.4117122 117.964803,1.4117122 C119.076085,1.4117122 120.01506,1.40880976 120.78241,1.40266341 C121.549248,1.3966878 122.198479,1.38456585 122.730274,1.36646829 C123.261556,1.34837073 123.69335,1.32737073 124.025829,1.30312683 C124.357795,1.27905366 124.644632,1.24883415 124.886513,1.21263902" id="Fill-17" fill="#000000"></path>
                <path d="M141.447812,3.23954878 C141.858239,3.23954878 142.284222,3.22452439 142.725248,3.19430488 C143.166103,3.16442683 143.525248,3.13096341 143.803368,3.09476829 L142.444393,6.9857439 L141.375333,6.67808537 L142.317556,4.14442683 L137.515846,4.14442683 C137.455333,4.37371951 137.385932,4.59993902 137.30747,4.82308537 C137.228667,5.04640244 137.138239,5.28764634 137.035675,5.5469878 C136.93294,5.8065 136.812085,6.10203659 136.673282,6.43376829 C136.534308,6.76567073 136.367983,7.15493902 136.174991,7.60106098 C135.993795,7.43220732 135.812598,7.30552439 135.631402,7.2210122 C135.450205,7.13667073 135.238752,7.08237805 134.997214,7.05813415 C135.613282,6.26184146 136.114479,5.28167073 136.501316,4.11728049 C136.887641,2.95306098 137.165248,1.65908537 137.33465,0.235353659 C137.890205,0.464646341 138.324906,0.58552439 138.639265,0.597304878 C138.772085,0.609426829 138.847641,0.645621951 138.865932,0.705890244 C138.88388,0.766329268 138.820462,0.856817073 138.675504,0.977353659 C138.639265,1.01354878 138.596701,1.06784146 138.548667,1.14023171 C138.500291,1.21262195 138.442855,1.32735366 138.37653,1.48408537 C138.310034,1.6409878 138.228496,1.86123171 138.131915,2.14464634 C138.034991,2.42823171 137.914479,2.7932561 137.769521,3.23954878 L141.447812,3.23954878 Z M139.527128,8.07159756 C139.672085,8.75930488 139.874308,9.43523171 140.134137,10.0985244 C140.393795,10.7621585 140.719949,11.4015488 141.112598,12.0168659 C141.505077,12.6321829 141.964222,13.214378 142.489692,13.7632805 C143.015162,14.3123537 143.622171,14.8100366 144.310718,15.2563293 C143.899949,15.461378 143.543538,15.792939 143.241658,16.2516951 C142.62559,15.636378 142.097043,15.0632317 141.656188,14.5324268 C141.215162,14.001622 140.834479,13.4918171 140.51465,13.0031829 C140.194479,12.5145488 139.931744,12.032061 139.726444,11.555378 C139.520974,11.0788659 139.351915,10.5871585 139.219094,10.0804268 C139.086103,10.7681341 138.902,11.3988171 138.666444,11.971622 C138.430889,12.5447683 138.140974,13.084622 137.796701,13.5913537 C137.452427,14.0980854 137.044735,14.574939 136.573624,15.021061 C136.102513,15.4673537 135.558923,15.9078415 134.942855,16.3421829 C134.834137,15.9802317 134.489863,15.6906707 133.910034,15.4735 C135.081658,14.9065 136.059949,14.0951829 136.845419,13.039378 C137.630547,11.9837439 138.14388,10.7500366 138.38559,9.33842683 C138.603026,8.10779268 138.645077,6.99786585 138.512427,6.00847561 C138.814308,6.0929878 139.07106,6.15035366 139.282513,6.18040244 C139.493624,6.21062195 139.677897,6.21967073 139.835162,6.20754878 C139.98012,6.19559756 140.061658,6.2227439 140.079778,6.2889878 C140.097897,6.35540244 140.040462,6.44896341 139.907641,6.5695 C139.859265,6.61781707 139.804906,6.75047561 139.744564,6.96764634 C139.684051,7.18481707 139.611573,7.55291463 139.527128,8.07159756 L139.527128,8.07159756 Z M130.177385,3.45671951 C129.633795,3.45671951 129.195846,3.46884146 128.863709,3.49291463 C128.531231,3.51715854 128.244564,3.55335366 128.003026,3.6015 L128.003026,2.4432561 C128.280803,2.49157317 128.597897,2.52776829 128.954308,2.55184146 C129.310547,2.57608537 129.796872,2.58803659 130.41294,2.58803659 C130.485419,2.31059756 130.545761,2.06030488 130.594137,1.8369878 C130.642171,1.61384146 130.684735,1.40264634 130.720974,1.20357317 C130.757214,1.0045 130.787299,0.8085 130.811573,0.615402439 C130.835675,0.42247561 130.859778,0.223402439 130.884051,0.0181829268 C131.161829,0.162963415 131.409521,0.265573171 131.626957,0.325841463 C131.844393,0.38645122 132.073624,0.416329268 132.315504,0.416329268 C132.484393,0.416329268 132.581145,0.470621951 132.605419,0.579207317 C132.629521,0.687792683 132.581145,0.766329268 132.460462,0.81447561 C132.375846,0.850670732 132.30012,0.895914634 132.233966,0.950207317 C132.16747,1.0045 132.098068,1.0949878 132.02559,1.22167073 C131.953111,1.34835366 131.874308,1.52028049 131.790034,1.73745122 C131.705419,1.95462195 131.602513,2.23820732 131.482,2.58803659 C132.424222,2.58803659 133.215333,2.57608537 133.855675,2.55184146 C134.495846,2.52776829 134.984906,2.49157317 135.323368,2.4432561 L135.323368,3.6015 C135.154137,3.57742683 134.963709,3.5562561 134.752598,3.53815854 C134.541145,3.52006098 134.27841,3.50503659 133.964393,3.49291463 C133.650205,3.48113415 133.269521,3.47191463 132.822855,3.46576829 C132.375846,3.45979268 131.826274,3.45671951 131.173966,3.45671951 L129.615675,7.85442683 L131.790034,7.85442683 C131.790034,6.91335366 131.780974,6.1775 131.762855,5.64652439 C131.744735,5.11571951 131.705419,4.74779268 131.645077,4.54257317 C132.091915,4.63920732 132.538923,4.6692561 132.985932,4.63306098 C133.09465,4.62110976 133.164051,4.6482561 133.194308,4.7145 C133.224393,4.78091463 133.173111,4.85637805 133.040291,4.94071951 C132.955675,4.98903659 132.895333,5.07047561 132.859094,5.18503659 C132.822855,5.29976829 132.804735,5.42935366 132.804735,5.57413415 L132.804735,7.85442683 C133.142855,7.85442683 133.435846,7.84845122 133.683538,7.83632927 C133.930889,7.82437805 134.142513,7.8122561 134.317726,7.80013415 C134.492598,7.78835366 134.646786,7.7702561 134.779778,7.74584146 C134.912598,7.72176829 135.033453,7.69769512 135.142171,7.67345122 L135.142171,8.90408537 C134.924735,8.85593902 134.637556,8.81667073 134.281487,8.78645122 C133.925077,8.75640244 133.432598,8.74120732 132.804735,8.74120732 L132.804735,11.1119878 C133.312085,10.9914512 133.783197,10.8707439 134.218068,10.7500366 C134.65294,10.6295 135.039436,10.5087927 135.377726,10.3880854 C135.353453,10.569061 135.347299,10.7500366 135.359607,10.9310122 C135.371402,11.1119878 135.401829,11.3050854 135.450205,11.5101341 C135.135846,11.5705732 134.746444,11.648939 134.281487,11.7454024 C133.816188,11.8420366 133.324051,11.950622 132.804735,12.0711585 C132.804735,12.565939 132.80747,13.018378 132.813795,13.4284756 C132.819607,13.8387439 132.828838,14.2247683 132.840974,14.5867195 C132.85294,14.9486707 132.868154,15.2894512 132.886274,15.6092317 C132.904393,15.9286707 132.925419,16.2455488 132.949692,16.5593537 L131.645077,16.5593537 C131.705419,15.9078415 131.744735,15.259061 131.762855,14.6138659 C131.780974,13.9685 131.790034,13.2053293 131.790034,12.3245244 C131.101487,12.4935488 130.44012,12.6654756 129.806103,12.8403049 C129.171744,13.0153049 128.643197,13.1751098 128.220462,13.3198902 C128.208325,13.0665244 128.168838,12.8312561 128.102684,12.6140854 C128.036188,12.3969146 127.954479,12.2039878 127.858068,12.0349634 C128.437897,11.9746951 129.065761,11.8842073 129.742513,11.7635 C130.418752,11.6429634 131.101487,11.5041585 131.790034,11.3472561 L131.790034,8.72310976 C131.282684,8.72310976 130.844735,8.73215854 130.476359,8.7502561 C130.107641,8.76835366 129.793795,8.79259756 129.534137,8.82264634 C129.274137,8.85286585 129.053966,8.88906098 128.872769,8.93123171 C128.691573,8.97357317 128.534479,9.02479268 128.401658,9.08506098 C128.377214,8.8800122 128.32012,8.67496341 128.229521,8.4697439 C128.138923,8.26469512 128.045248,8.09584146 127.948667,7.9630122 C128.117726,7.9027439 128.28388,7.79108537 128.446957,7.62820732 C128.610034,7.46532927 128.782171,7.21503659 128.963368,6.87715854 C129.144564,6.53962195 129.331744,6.0929878 129.525077,5.53793902 C129.718239,4.98306098 129.935504,4.28920732 130.177385,3.45671951 L130.177385,3.45671951 Z" id="Fill-19" fill="#000000"></path>
                <path d="M156.487214,4.09013415 L156.487214,2.98618293 C156.487214,2.2505 156.469094,1.66813415 156.432855,1.23976829 C156.396615,0.811573171 156.348239,0.488719512 156.287897,0.27154878 C156.589607,0.343939024 156.885846,0.401304878 157.17559,0.44347561 C157.465675,0.485987805 157.670974,0.500841463 157.791829,0.488719512 C157.960718,0.476768293 158.05747,0.497768293 158.081573,0.552060976 C158.105846,0.606353659 158.039179,0.730134146 157.882256,0.923060976 C157.785504,1.03164634 157.71012,1.24881707 157.655932,1.57457317 C157.601573,1.90032927 157.574222,2.24418293 157.574222,2.60613415 L157.574222,4.09013415 L158.26294,4.09013415 C158.915077,4.09013415 159.524991,4.07835366 160.093026,4.05393902 C160.660547,4.02986585 161.119521,3.98769512 161.469949,3.9272561 L161.469949,5.15789024 C161.119521,5.09762195 160.660547,5.05545122 160.093026,5.03120732 C159.524991,5.00713415 158.915077,4.9950122 158.26294,4.9950122 L157.574222,4.9950122 L157.574222,9.2117439 C158.637128,9.2117439 159.600547,9.19979268 160.464479,9.17554878 C161.327897,9.15147561 162.055761,9.11528049 162.647897,9.06696341 L162.647897,10.2614024 C162.043624,10.2132561 161.312855,10.177061 160.455419,10.1528171 C159.59747,10.1287439 158.637128,10.116622 157.574222,10.116622 L157.574222,12.1797439 C157.574222,13.1088659 157.586188,13.9201829 157.610462,14.6138659 C157.634564,15.3075488 157.676786,15.9621341 157.737299,16.5774512 L156.287897,16.5774512 C156.348239,15.9500122 156.396615,15.2351585 156.432855,14.4328902 C156.469094,13.630622 156.487214,12.8795732 156.487214,12.1797439 L156.487214,10.116622 C155.279179,10.116622 154.204137,10.1256707 153.261915,10.1437683 C152.319521,10.1618659 151.516103,10.2011341 150.851829,10.2614024 L150.851829,9.06696341 C151.528239,9.12740244 152.331487,9.1665 153.261915,9.18459756 C154.191829,9.20269512 155.266872,9.2117439 156.487214,9.2117439 L156.487214,4.9950122 L153.352342,4.9950122 C153.08653,5.79130488 152.675761,6.76259756 152.120205,7.90871951 C151.939179,7.78835366 151.745846,7.69462195 151.540547,7.62820732 C151.334906,7.56196341 151.123795,7.49862195 150.906359,7.43818293 C151.075419,7.2452561 151.232513,7.04003659 151.377299,6.82286585 C151.522256,6.60569512 151.658325,6.36445122 151.784991,6.09896341 C151.911829,5.83364634 152.038838,5.52889024 152.165675,5.18503659 C152.292513,4.84118293 152.42841,4.44610976 152.573368,3.99964634 C152.73012,3.50503659 152.844991,3.06762195 152.91747,2.68757317 C152.99012,2.30752439 153.038154,1.92457317 153.062598,1.53837805 C153.279863,1.69528049 153.470291,1.80693902 153.633368,1.87318293 C153.796444,1.93959756 154.028752,1.98484146 154.330974,2.00891463 C154.487726,2.03332927 154.56653,2.10247561 154.56653,2.21703659 C154.56653,2.33193902 154.494051,2.42515854 154.348923,2.49754878 C154.252171,2.54586585 154.149607,2.68757317 154.040889,2.92284146 C153.932342,3.15810976 153.793197,3.54720732 153.624308,4.09013415 L156.487214,4.09013415 Z M148.659521,5.64652439 C148.333368,6.23776829 148.037128,6.72640244 147.771658,7.11242683 C147.505675,7.49862195 147.23388,7.86057317 146.956103,8.19828049 C146.799009,8.02942683 146.63012,7.89369512 146.448752,7.79108537 C146.267726,7.68881707 146.037983,7.58928049 145.760205,7.49247561 C146.001744,7.29954878 146.225162,7.09740244 146.430803,6.88620732 C146.635932,6.67535366 146.847385,6.42471951 147.064991,6.13515854 C147.282256,5.84559756 147.511658,5.49884146 147.753368,5.09454878 C147.994906,4.69042683 148.272684,4.19871951 148.586872,3.61959756 C148.973368,2.89569512 149.281573,2.23820732 149.510974,1.64696341 C149.740376,1.05606098 149.903453,0.506817073 150.000376,8.53658537e-05 C150.265846,0.169280488 150.48653,0.295792683 150.661744,0.380134146 C150.836615,0.464646341 151.008752,0.524914634 151.177983,0.561109756 C151.39559,0.621719512 151.510291,0.718012195 151.522256,0.850670732 C151.534222,0.983670732 151.425504,1.07996341 151.196274,1.14023171 C151.160034,1.15235366 151.11747,1.18257317 151.069436,1.23071951 C151.020889,1.27903659 150.945333,1.38454878 150.842769,1.54742683 C150.740034,1.71030488 150.598325,1.95769512 150.416957,2.28942683 C150.235932,2.62132927 150.000376,3.07069512 149.710291,3.63769512 L149.710291,16.6860366 L148.460205,16.6860366 C148.520547,16.1671829 148.568923,15.5730366 148.605162,14.9034268 C148.641402,14.2338171 148.659521,13.5732561 148.659521,12.9217439 L148.659521,5.64652439 Z" id="Fill-21" fill="#000000"></path>
                <mask id="mask-2" fill="white">
                    <use xlink:href="#path-1"></use>
                </mask>
                <g id="Clip-24"></g>
                <path d="M168.13812,8.66873171 L172.396239,8.66873171 L172.396239,7.56478049 L168.13812,7.56478049 L168.13812,8.66873171 Z M168.137949,6.80468293 L172.396068,6.80468293 L172.396068,5.55595122 L168.137949,5.55595122 L168.137949,6.80468293 Z M168.137949,4.79585366 L172.396068,4.79585366 L172.396068,3.49282927 L168.137949,3.49282927 L168.137949,4.79585366 Z M173.193504,11.2747805 C174.123419,11.2747805 174.938974,11.2720488 175.639658,11.2657317 C176.34,11.2599268 176.962222,11.2476341 177.505983,11.2295366 C178.049573,11.211439 178.535726,11.1933415 178.964444,11.1752439 C179.393162,11.1573171 179.795043,11.13 180.169573,11.0938049 L180.169573,12.1977561 C179.795043,12.1738537 179.456581,12.1526829 179.154872,12.1345854 C178.85265,12.1164878 178.505299,12.1045366 178.112991,12.0982195 C177.720171,12.0924146 177.24906,12.086439 176.699487,12.080122 C176.149915,12.0743171 175.440342,12.0712439 174.570427,12.0712439 C174.896752,12.4212439 175.268034,12.7587805 175.684957,13.0847073 C176.101538,13.4102927 176.56359,13.7061707 177.071111,13.9713171 C177.578462,14.2369756 178.124786,14.4631951 178.71094,14.6501463 C179.296752,14.8372683 179.915897,14.9666829 180.568205,15.0390732 C180.302393,15.244122 180.103077,15.4612927 179.970256,15.6905854 C179.837094,15.9197073 179.728376,16.1730732 179.644103,16.4506829 C178.87094,16.2335122 178.17641,15.9680244 177.560342,15.6543902 C176.944274,15.3405854 176.391624,14.994 175.902222,14.6139512 C175.413162,14.2339024 174.981197,13.8297805 174.606838,13.4014146 C174.232308,12.9732195 173.893846,12.5298293 173.592137,12.0712439 L173.193504,12.0712439 L173.193504,15.2743415 C173.193504,15.5155854 173.199487,15.7599024 173.211624,16.0072927 C173.223419,16.2545122 173.253675,16.5350244 173.302051,16.8488293 L171.943248,16.8488293 C172.039829,16.2937805 172.088205,15.7689512 172.088205,15.2743415 L172.088205,12.0712439 L171.635043,12.0712439 C171.369402,12.5177073 171.067179,12.9428293 170.729231,13.347122 C170.390769,13.7514146 169.983077,14.137439 169.505983,14.5051951 C169.028718,14.8734634 168.467009,15.2292683 167.821026,15.5729512 C167.174701,15.9168049 166.410427,16.2575854 165.528889,16.5956341 C165.444274,16.3540488 165.332308,16.1399512 165.193675,15.953 C165.05453,15.765878 164.858462,15.5939512 164.604615,15.4372195 C165.268889,15.3165122 165.906325,15.1415122 166.51641,14.912561 C167.126154,14.683439 167.69094,14.4179512 168.210598,14.1162683 C168.729744,13.8147561 169.19812,13.489 169.614872,13.1388293 C170.031624,12.7891707 170.378632,12.4331951 170.656752,12.0712439 C169.968034,12.0712439 169.352137,12.0743171 168.808376,12.080122 C168.264957,12.086439 167.766667,12.0924146 167.313675,12.0982195 C166.860684,12.1045366 166.440855,12.1164878 166.054359,12.1345854 C165.667521,12.1526829 165.287179,12.1738537 164.912821,12.1977561 L164.912821,11.0938049 C165.287179,11.1182195 165.688718,11.1422927 166.117778,11.1661951 C166.546325,11.1906098 167.038803,11.211439 167.59453,11.2295366 C168.150085,11.2476341 168.790427,11.2599268 169.515214,11.2657317 C170.239829,11.2720488 171.091624,11.2747805 172.069915,11.2747805 C172.057778,10.973439 172.045812,10.704878 172.033675,10.4696098 C172.021538,10.2341707 172.00359,10.0504634 171.979487,9.91746341 C172.257094,9.95382927 172.507692,9.97807317 172.731453,9.99002439 C172.954701,10.0021463 173.16906,10.008122 173.374701,10.008122 C173.555897,10.008122 173.658291,10.0533659 173.682735,10.1436829 C173.706838,10.2341707 173.634359,10.3219268 173.465128,10.4062683 C173.284103,10.5029024 173.193504,10.6717561 173.193504,10.9128293 L173.193504,11.2747805 Z M173.990769,2.71463415 C173.833675,2.55807317 173.652308,2.38904878 173.447179,2.20807317 C173.241538,2.02692683 173.02735,1.85517073 172.803761,1.69229268 C172.580342,1.5292439 172.36,1.37558537 172.142564,1.23063415 C171.925128,1.08585366 171.725812,0.965487805 171.544615,0.868682927 L172.232991,0.14495122 C172.740513,0.446634146 173.250769,0.778365854 173.764274,1.14031707 C174.277436,1.50209756 174.691111,1.82204878 175.00547,2.09931707 L174.407521,2.71463415 C175.156239,2.71463415 175.79641,2.71190244 176.328205,2.7057561 C176.859658,2.69978049 177.312479,2.69073171 177.687179,2.67843902 C178.061368,2.66665854 178.375726,2.65146341 178.629231,2.63319512 C178.883077,2.61509756 179.106325,2.59426829 179.299658,2.57002439 L179.299658,3.63778049 C179.094188,3.61370732 178.86188,3.59236585 178.602051,3.57426829 C178.342393,3.55634146 178.016239,3.54131707 177.623761,3.52902439 C177.231111,3.5172439 176.754017,3.50819512 176.192308,3.50204878 C175.630427,3.49590244 174.951111,3.49282927 174.153846,3.49282927 L173.447179,3.49282927 L173.447179,4.79585366 C174.159829,4.79585366 174.775726,4.79312195 175.295385,4.78697561 C175.814701,4.781 176.261709,4.77195122 176.636068,4.75965854 C177.010598,4.74787805 177.327521,4.73268293 177.587521,4.71458537 C177.847009,4.69631707 178.073504,4.6754878 178.266838,4.6512439 L178.266838,5.70090244 C178.073504,5.67682927 177.847009,5.6554878 177.587521,5.63739024 C177.327521,5.61929268 177.010598,5.60443902 176.636068,5.59214634 C176.261709,5.58036585 175.814701,5.57131707 175.295385,5.56517073 C174.775726,5.55902439 174.159829,5.55595122 173.447179,5.55595122 L173.447179,6.80468293 C174.171795,6.80468293 174.799829,6.80195122 175.331453,6.79580488 C175.863077,6.78965854 176.319145,6.78078049 176.699487,6.7684878 C177.080171,6.75670732 177.4,6.74134146 177.66,6.7232439 C177.919487,6.70514634 178.145983,6.68431707 178.339487,6.66007317 L178.339487,7.70973171 C178.145983,7.68565854 177.919487,7.66431707 177.66,7.64639024 C177.4,7.62829268 177.080171,7.61326829 176.699487,7.60097561 C176.319145,7.58919512 175.863077,7.58014634 175.331453,7.57382927 C174.799829,7.56802439 174.171795,7.56478049 173.447179,7.56478049 L173.447179,8.66873171 C175.065812,8.66873171 176.391624,8.65695122 177.424444,8.63253659 C178.457265,8.60863415 179.172991,8.57243902 179.571624,8.52412195 L179.571624,9.62790244 C179.172991,9.59187805 178.457265,9.5587561 177.424444,9.52836585 C176.391624,9.4984878 175.059829,9.48312195 173.42906,9.48312195 L168.137949,9.48312195 L168.137949,10.4062683 L166.869573,10.4062683 C166.930085,9.85139024 166.981197,9.23607317 167.023761,8.56031707 C167.065983,7.88473171 167.087179,7.19702439 167.087179,6.49719512 L167.087179,4.45217073 C166.833504,4.80217073 166.570598,5.14278049 166.298974,5.4745122 C166.027179,5.80658537 165.764444,6.11117073 165.510598,6.38843902 C165.281197,6.2197561 165.051624,6.09307317 164.822222,6.00839024 C164.592479,5.92421951 164.338974,5.85182927 164.061197,5.79121951 C164.580342,5.50182927 165.096752,5.09173171 165.610256,4.56058537 C166.12359,4.02995122 166.62188,3.42060976 167.105128,2.73273171 C167.455385,2.25041463 167.724274,1.80070732 167.911624,1.38446341 C168.098803,0.968219512 168.276752,0.537121951 168.446154,0.0906585366 C168.66359,0.223487805 168.850598,0.334804878 169.007692,0.425463415 C169.164615,0.515780488 169.309573,0.597219512 169.442735,0.669609756 C169.684103,0.790487805 169.798803,0.89002439 169.787009,0.968219512 C169.774872,1.04692683 169.684103,1.1162439 169.515214,1.1765122 C169.382222,1.22482927 169.216239,1.36960976 169.016923,1.61068293 C168.817607,1.85226829 168.560684,2.22019512 168.246838,2.71463415 L173.990769,2.71463415 Z" id="Fill-23" fill="#000000" mask="url(#mask-2)"></path>
                <path d="M191.512427,6.29805366 C190.244051,6.28610244 189.072256,6.29207805 187.997385,6.31615122 C186.922,6.34056585 186.052256,6.3704439 185.387983,6.40663902 L185.387983,5.28459024 C186.07653,5.33290732 186.958068,5.36910244 188.033453,5.39317561 C189.108496,5.41741951 190.268154,5.42937073 191.512427,5.42937073 C191.512427,4.70546829 191.500291,4.13249268 191.476188,3.71010244 C191.451915,3.28788293 191.415675,2.95000488 191.36747,2.69663902 C191.66935,2.78115122 191.904906,2.8354439 192.074137,2.85951707 C192.243026,2.88376098 192.430376,2.88973659 192.635846,2.87761463 C192.828838,2.86566341 192.940632,2.8957122 192.97106,2.96810244 C193.001145,3.04049268 192.949863,3.11902927 192.817043,3.20337073 C192.72012,3.26398049 192.647812,3.36624878 192.599607,3.51102927 C192.551231,3.65580976 192.527299,3.79461463 192.527299,3.92727317 L192.527299,5.42937073 C193.13106,5.41741951 193.698752,5.40222439 194.230376,5.38412683 C194.761829,5.36602927 195.299436,5.33290732 195.843026,5.28459024 L195.843026,6.40663902 C195.287299,6.3704439 194.740632,6.34329756 194.203197,6.3252 C193.66559,6.30710244 193.106957,6.29805366 192.527299,6.29805366 L192.527299,12.2883463 C192.527299,12.5417122 192.499949,12.7619561 192.44559,12.9489073 C192.391231,13.1360293 192.270376,13.2898585 192.083197,13.4103951 C191.895675,13.5311024 191.614991,13.6215902 191.240632,13.6818585 C190.866103,13.7424683 190.358752,13.7723463 189.718581,13.7723463 C189.718581,13.5551756 189.673282,13.3262244 189.582684,13.084639 C189.492085,12.8433951 189.362171,12.6141024 189.193111,12.3969317 C189.688325,12.4935659 190.090034,12.5569073 190.398068,12.5869561 C190.706103,12.6171756 190.941658,12.6141024 191.104735,12.5779073 C191.267812,12.5417122 191.37653,12.4723951 191.430889,12.3697854 C191.485248,12.2673463 191.512427,12.1254683 191.512427,11.9444927 L191.512427,7.74585854 C191.198239,8.14400488 190.82388,8.55734634 190.389009,8.98554146 C189.954137,9.41390732 189.479949,9.83015122 188.966615,10.2342732 C188.453111,10.6385659 187.912427,11.0276634 187.344906,11.4015659 C186.777043,11.775639 186.215333,12.1136878 185.659778,12.4150293 C185.538923,12.2099805 185.393966,12.0290049 185.224906,11.8721024 C185.055675,11.7153707 184.868496,11.5886878 184.663197,11.4920537 C185.895333,11.033639 187.106274,10.3761512 188.296359,9.51941951 C189.485932,8.66285854 190.558068,7.64939512 191.512427,6.47902927 L191.512427,6.29805366 Z M184.42747,14.4600537 L196.459094,14.4600537 L196.459094,2.28039512 L184.42747,2.28039512 L184.42747,14.4600537 Z M184.427641,15.3649317 L184.427641,16.6679561 L183.177385,16.6679561 C183.201487,16.4145902 183.225419,16.1310049 183.249863,15.8173707 C183.273966,15.5033951 183.295162,15.177639 183.313282,14.8401024 C183.331402,14.5023951 183.343368,14.1704927 183.349521,13.8447366 C183.355504,13.5189805 183.358581,13.2174683 183.358581,12.9398585 L183.358581,4.01776098 C183.358581,3.39049268 183.343368,2.86566341 183.313282,2.44327317 C183.282855,2.02105366 183.237726,1.62290732 183.177385,1.24883415 C183.382513,1.28502927 183.642342,1.31217561 183.95653,1.33027317 C184.270547,1.34837073 184.699607,1.36356585 185.243026,1.37551707 C185.786615,1.38763902 186.475162,1.3966878 187.308667,1.40266341 C188.142171,1.40880976 189.186957,1.4117122 190.443368,1.4117122 C191.687299,1.4117122 192.72935,1.40880976 193.569009,1.40266341 C194.408325,1.3966878 195.10012,1.38763902 195.643709,1.37551707 C196.187299,1.36356585 196.615846,1.34546829 196.930205,1.32122439 C197.244222,1.29715122 197.497897,1.27307805 197.691231,1.24883415 C197.666957,1.41802927 197.645932,1.61710244 197.627812,1.84605366 C197.609692,2.07534634 197.591573,2.3136878 197.573453,2.56090732 C197.555504,2.80829756 197.543197,3.05859024 197.537214,3.3119561 C197.53106,3.56532195 197.528154,3.80059024 197.528154,4.01776098 L197.528154,13.0484439 C197.528154,13.712078 197.54012,14.3092976 197.564393,14.8401024 C197.588496,15.3709073 197.630718,15.8957366 197.691231,16.4145902 L196.459094,16.4145902 L196.459094,15.3649317 L184.427641,15.3649317 Z" id="Fill-25" fill="#000000" mask="url(#mask-2)"></path>
                <path d="M38.326906,24.5311585 C38.7535726,24.7935732 39.3771624,25.011939 40.0334017,25.011939 C41.0070769,25.011939 41.5759658,24.4985488 41.5759658,23.7555244 C41.5759658,23.0673049 41.1821197,22.6737683 40.1865641,22.2915 C38.9833162,21.8653537 38.2393846,21.2425244 38.2393846,20.2044756 C38.2393846,19.0573293 39.1911795,18.2052073 40.6241709,18.2052073 C41.3788718,18.2052073 41.9260513,18.3798659 42.2540855,18.565622 L41.9915214,19.3415976 C41.7510085,19.2103049 41.2587009,18.9917683 40.5913504,18.9917683 C39.5848547,18.9917683 39.2021197,19.5925732 39.2021197,20.095378 C39.2021197,20.7837683 39.6506667,21.1223293 40.6679316,21.5156951 C41.9151111,21.9964756 42.5494701,22.5974512 42.5494701,23.6790366 C42.5494701,24.8152561 41.7070769,25.7986707 39.9677607,25.7986707 C39.2566496,25.7986707 38.4800684,25.591061 38.0862222,25.3288171 L38.326906,24.5311585 Z" id="Fill-26" fill="#000000" mask="url(#mask-2)"></path>
                <path d="M44.0376239,17.9320707 L45.000188,17.9320707 L45.000188,21.2316317 L45.0220684,21.2316317 C45.1752308,20.958461 45.4159145,20.7180707 45.7112991,20.554339 C45.9957436,20.3902659 46.3348889,20.2809976 46.6959145,20.2809976 C47.4068547,20.2809976 48.5446325,20.7180707 48.5446325,22.5426805 L48.5446325,25.6894366 L47.5818974,25.6894366 L47.5818974,22.6521195 C47.5818974,21.7998268 47.2646325,21.0786561 46.3567692,21.0786561 C45.7331795,21.0786561 45.2408718,21.5157293 45.0658291,22.0402171 C45.0111282,22.171339 45.000188,22.3133878 45.000188,22.4991439 L45.000188,25.6894366 L44.0376239,25.6894366 L44.0376239,17.9320707 Z" id="Fill-27" fill="#000000" mask="url(#mask-2)"></path>
                <path d="M53.1176581,22.9907488 C52.0674017,22.9688951 50.875094,23.1546512 50.875094,24.1817732 C50.875094,24.8044317 51.2908205,25.0994561 51.7829573,25.0994561 C52.472359,25.0994561 52.9097949,24.6623829 53.0631282,24.2143829 C53.0957778,24.1160415 53.1176581,24.0067732 53.1176581,23.9086024 L53.1176581,22.9907488 Z M53.2598803,25.6895049 L53.1832991,25.0229683 L53.1504786,25.0229683 C52.855265,25.4381878 52.2863761,25.8097 51.5315043,25.8097 C50.4593675,25.8097 49.9125299,25.0557488 49.9125299,24.2908707 C49.9125299,23.0126024 51.0501368,22.3132854 53.0957778,22.3243829 L53.0957778,22.2149439 C53.0957778,21.7778707 52.9754359,20.991139 51.8925299,20.991139 C51.4002222,20.991139 50.8860342,21.1442854 50.5142393,21.3846756 L50.295265,20.7509195 C50.7328718,20.466822 51.3674017,20.2810659 52.0347521,20.2810659 C53.6537265,20.2810659 54.0474017,21.3846756 54.0474017,22.4444073 L54.0474017,24.4221634 C54.0474017,24.8809195 54.0692821,25.3287488 54.135094,25.6895049 L53.2598803,25.6895049 Z" id="Fill-28" fill="#000000" mask="url(#mask-2)"></path>
                <path d="M55.8201538,21.8324707 C55.8201538,21.2863 55.8092137,20.8383 55.7763932,20.4012268 L56.6295556,20.4012268 L56.6844274,21.2752024 L56.7063077,21.2752024 C56.9688718,20.772739 57.5813504,20.2810317 58.4565641,20.2810317 C59.1893846,20.2810317 60.3271624,20.7181049 60.3271624,22.5317878 L60.3271624,25.6894707 L59.3644274,25.6894707 L59.3644274,22.6410561 C59.3644274,21.7887634 59.0471624,21.0786902 58.1391282,21.0786902 C57.5047692,21.0786902 57.0126325,21.5266902 56.8485299,22.0619341 C56.8047692,22.1823 56.7828889,22.3460317 56.7828889,22.5101049 L56.7828889,25.6894707 L55.8201538,25.6894707 L55.8201538,21.8324707 Z" id="Fill-29" fill="#000000" mask="url(#mask-2)"></path>
                <path d="M65.6767521,22.4880463 C65.6767521,22.3243146 65.665812,22.1822659 65.6220513,22.0509732 C65.4470085,21.4938756 64.9765812,21.034778 64.2765812,21.034778 C63.3576068,21.034778 62.7011966,21.8107537 62.7011966,23.0343878 C62.7011966,24.0722659 63.2263248,24.9356561 64.2654701,24.9356561 C64.8562393,24.9356561 65.3923077,24.5641439 65.6001709,23.9522415 C65.6548718,23.7881683 65.6767521,23.6024122 65.6767521,23.4386805 L65.6767521,22.4880463 Z M66.6721368,20.4011927 C66.6502564,20.7838024 66.6283761,21.209778 66.6283761,21.854461 L66.6283761,24.9245585 C66.6283761,26.1374366 66.3878632,26.880461 65.8736752,27.3392171 C65.3596581,27.8199976 64.6155556,27.9729732 63.9483761,27.9729732 C63.3138462,27.9729732 62.6136752,27.8199976 62.1871795,27.5359 L62.4276923,26.8038024 C62.7777778,27.0225098 63.3247863,27.2191927 63.9811966,27.2191927 C64.965641,27.2191927 65.6876923,26.7056317 65.6876923,25.3725585 L65.6876923,24.7825098 L65.665812,24.7825098 C65.3704274,25.2742171 64.8015385,25.6675829 63.9811966,25.6675829 C62.6683761,25.6675829 61.7275214,24.5532171 61.7275214,23.089022 C61.7275214,21.2971927 62.8981197,20.2809976 64.1124786,20.2809976 C65.031453,20.2809976 65.5345299,20.761778 65.7642735,21.1988512 L65.7861538,21.1988512 L65.8299145,20.4011927 L66.6721368,20.4011927 Z" id="Fill-30" fill="#000000" mask="url(#mask-2)"></path>
                <path d="M68.4448376,17.9320707 L69.4075726,17.9320707 L69.4075726,21.2316317 L69.429453,21.2316317 C69.5824444,20.958461 69.8231282,20.7180707 70.1185128,20.554339 C70.4029573,20.3902659 70.7419316,20.2809976 71.1031282,20.2809976 C71.8140684,20.2809976 72.9518462,20.7180707 72.9518462,22.5426805 L72.9518462,25.6894366 L71.9891111,25.6894366 L71.9891111,22.6521195 C71.9891111,21.7998268 71.6720171,21.0786561 70.763812,21.0786561 C70.1403932,21.0786561 69.6480855,21.5157293 69.4732137,22.0402171 C69.4183419,22.171339 69.4075726,22.3133878 69.4075726,22.4991439 L69.4075726,25.6894366 L68.4448376,25.6894366 L68.4448376,17.9320707 Z" id="Fill-31" fill="#000000" mask="url(#mask-2)"></path>
                <path d="M77.5248718,22.9907488 C76.4746154,22.9688951 75.2823077,23.1546512 75.2823077,24.1817732 C75.2823077,24.8044317 75.6980342,25.0994561 76.1901709,25.0994561 C76.8795726,25.0994561 77.3170085,24.6623829 77.4703419,24.2143829 C77.5029915,24.1160415 77.5248718,24.0067732 77.5248718,23.9086024 L77.5248718,22.9907488 Z M77.667094,25.6895049 L77.5905128,25.0229683 L77.5576923,25.0229683 C77.2623077,25.4381878 76.6935897,25.8097 75.9387179,25.8097 C74.8665812,25.8097 74.3197436,25.0557488 74.3197436,24.2908707 C74.3197436,23.0126024 75.4573504,22.3132854 77.5029915,22.3243829 L77.5029915,22.2149439 C77.5029915,21.7778707 77.3826496,20.991139 76.2997436,20.991139 C75.8074359,20.991139 75.2932479,21.1442854 74.921453,21.3846756 L74.7024786,20.7509195 C75.1400855,20.466822 75.7746154,20.2810659 76.4419658,20.2810659 C78.0609402,20.2810659 78.4546154,21.3846756 78.4546154,22.4444073 L78.4546154,24.4221634 C78.4546154,24.8809195 78.4764957,25.3287488 78.5423077,25.6895049 L77.667094,25.6895049 Z" id="Fill-32" fill="#000000" mask="url(#mask-2)"></path>
                <path d="M80.2273504,25.6894878 L81.1900855,25.6894878 L81.1900855,20.4012439 L80.2273504,20.4012439 L80.2273504,25.6894878 Z M81.2994872,18.9153659 C81.3102564,19.2431707 81.0697436,19.5052439 80.6868376,19.5052439 C80.3476923,19.5052439 80.1070085,19.2431707 80.1070085,18.9153659 C80.1070085,18.5766341 80.3586325,18.314561 80.7087179,18.314561 C81.0697436,18.314561 81.2994872,18.5766341 81.2994872,18.9153659 L81.2994872,18.9153659 Z" id="Fill-33" fill="#000000" mask="url(#mask-2)"></path>
                <polygon id="Fill-34" fill="#000000" mask="url(#mask-2)" points="85.5767521 25.6894878 86.528547 25.6894878 86.528547 18.3254878 85.5767521 18.3254878"></polygon>
                <path d="M88.486906,21.8324707 C88.486906,21.2863 88.4759658,20.8383 88.4431453,20.4012268 L89.2963077,20.4012268 L89.3511795,21.2752024 L89.3730598,21.2752024 C89.6356239,20.772739 90.2481026,20.2810317 91.1233162,20.2810317 C91.8561368,20.2810317 92.9939145,20.7181049 92.9939145,22.5317878 L92.9939145,25.6894707 L92.0311795,25.6894707 L92.0311795,22.6410561 C92.0311795,21.7887634 91.7140855,21.0786902 90.8058803,21.0786902 C90.1715214,21.0786902 89.6793846,21.5266902 89.5152821,22.0619341 C89.4715214,22.1823 89.449641,22.3460317 89.449641,22.5101049 L89.449641,25.6894707 L88.486906,25.6894707 L88.486906,21.8324707 Z" id="Fill-35" fill="#000000" mask="url(#mask-2)"></path>
                <path d="M95.893094,18.8825854 L95.893094,20.4012439 L97.2713846,20.4012439 L97.2713846,21.1331707 L95.893094,21.1331707 L95.893094,23.9849024 C95.893094,24.6405122 96.0790769,25.0120244 96.6151453,25.0120244 C96.8665983,25.0120244 97.0525812,24.9792439 97.1729231,24.9464634 L97.2166838,25.6676341 C97.0307009,25.7439512 96.7354872,25.7985854 96.3635214,25.7985854 C95.9149744,25.7985854 95.5541197,25.6565366 95.3242051,25.3944634 C95.0507009,25.1103659 94.9522393,24.6405122 94.9522393,24.0176829 L94.9522393,21.1331707 L94.1318974,21.1331707 L94.1318974,20.4012439 L94.9522393,20.4012439 L94.9522393,19.1337317 L95.893094,18.8825854 Z" id="Fill-36" fill="#000000" mask="url(#mask-2)"></path>
                <path d="M101.866325,22.5317366 C101.877094,21.9198341 101.614701,20.9695415 100.531624,20.9695415 C99.5581197,20.9695415 99.131453,21.8653707 99.0548718,22.5317366 L101.866325,22.5317366 Z M99.0439316,23.2201268 C99.065812,24.5202488 99.897094,25.0556634 100.859829,25.0556634 C101.54906,25.0556634 101.964786,24.935639 102.325812,24.7826634 L102.489744,25.4708829 C102.150769,25.6238585 101.57094,25.7986878 100.728718,25.7986878 C99.0986325,25.7986878 98.1249573,24.7278585 98.1249573,23.1327122 C98.1249573,21.5375659 99.065812,20.2809805 100.608376,20.2809805 C102.336752,20.2809805 102.796068,21.7998098 102.796068,22.7721268 C102.796068,22.9689805 102.774359,23.1217854 102.763248,23.2201268 L99.0439316,23.2201268 Z" id="Fill-37" fill="#000000" mask="url(#mask-2)"></path>
                <path d="M104.207726,22.0510415 C104.207726,21.4283829 104.196786,20.8929683 104.163966,20.401261 L105.006359,20.401261 L105.039009,21.4393098 L105.082769,21.4393098 C105.323453,20.7290659 105.903282,20.2810659 106.548581,20.2810659 C106.658154,20.2810659 106.734735,20.291822 106.822256,20.3138463 L106.822256,21.2206024 C106.723795,21.1989195 106.625333,21.187822 106.494051,21.187822 C105.815761,21.187822 105.334564,21.7013829 105.203111,22.4225537 C105.181231,22.5536756 105.15935,22.7066512 105.15935,22.8705537 L105.15935,25.6895049 L104.207726,25.6895049 L104.207726,22.0510415 Z" id="Fill-38" fill="#000000" mask="url(#mask-2)"></path>
                <path d="M108.047709,21.8324707 C108.047709,21.2863 108.036769,20.8383 108.003949,20.4012268 L108.857111,20.4012268 L108.911983,21.2752024 L108.933863,21.2752024 C109.196427,20.772739 109.808906,20.2810317 110.68412,20.2810317 C111.41694,20.2810317 112.554718,20.7181049 112.554718,22.5317878 L112.554718,25.6894707 L111.591983,25.6894707 L111.591983,22.6410561 C111.591983,21.7887634 111.274718,21.0786902 110.366684,21.0786902 C109.732325,21.0786902 109.240188,21.5266902 109.076085,22.0619341 C109.032325,22.1823 109.010444,22.3460317 109.010444,22.5101049 L109.010444,25.6894707 L108.047709,25.6894707 L108.047709,21.8324707 Z" id="Fill-39" fill="#000000" mask="url(#mask-2)"></path>
                <path d="M117.696479,22.5317366 C117.707248,21.9198341 117.444855,20.9695415 116.361778,20.9695415 C115.388274,20.9695415 114.961607,21.8653707 114.885026,22.5317366 L117.696479,22.5317366 Z M114.874085,23.2201268 C114.895966,24.5202488 115.727248,25.0556634 116.689983,25.0556634 C117.379214,25.0556634 117.79494,24.935639 118.155966,24.7826634 L118.319897,25.4708829 C117.980923,25.6238585 117.401094,25.7986878 116.558872,25.7986878 C114.928786,25.7986878 113.955111,24.7278585 113.955111,23.1327122 C113.955111,21.5375659 114.895966,20.2809805 116.43853,20.2809805 C118.166906,20.2809805 118.626222,21.7998098 118.626222,22.7721268 C118.626222,22.9689805 118.604513,23.1217854 118.593402,23.2201268 L114.874085,23.2201268 Z" id="Fill-40" fill="#000000" mask="url(#mask-2)"></path>
                <path d="M121.197419,18.8825854 L121.197419,20.4012439 L122.575709,20.4012439 L122.575709,21.1331707 L121.197419,21.1331707 L121.197419,23.9849024 C121.197419,24.6405122 121.383402,25.0120244 121.91947,25.0120244 C122.170923,25.0120244 122.356906,24.9792439 122.477248,24.9464634 L122.521009,25.6676341 C122.335026,25.7439512 122.039812,25.7985854 121.667846,25.7985854 C121.219299,25.7985854 120.858444,25.6565366 120.62853,25.3944634 C120.355026,25.1103659 120.256564,24.6405122 120.256564,24.0176829 L120.256564,21.1331707 L119.436222,21.1331707 L119.436222,20.4012439 L120.256564,20.4012439 L120.256564,19.1337317 L121.197419,18.8825854 Z" id="Fill-41" fill="#000000" mask="url(#mask-2)"></path>
                <path d="M126.317282,24.5311585 C126.743949,24.7935732 127.367538,25.011939 128.023778,25.011939 C128.997453,25.011939 129.566342,24.4985488 129.566342,23.7555244 C129.566342,23.0673049 129.172496,22.6737683 128.17694,22.2915 C126.973692,21.8653537 126.229761,21.2425244 126.229761,20.2044756 C126.229761,19.0573293 127.181556,18.2052073 128.614547,18.2052073 C129.369248,18.2052073 129.916427,18.3798659 130.244632,18.565622 L129.981897,19.3415976 C129.741214,19.2103049 129.248906,18.9917683 128.581726,18.9917683 C127.575231,18.9917683 127.192496,19.5925732 127.192496,20.095378 C127.192496,20.7837683 127.640872,21.1223293 128.658308,21.5156951 C129.905316,21.9964756 130.539846,22.5974512 130.539846,23.6790366 C130.539846,24.8152561 129.697453,25.7986707 127.958308,25.7986707 C127.247026,25.7986707 126.470444,25.591061 126.076598,25.3288171 L126.317282,24.5311585 Z" id="Fill-42" fill="#000000" mask="url(#mask-2)"></path>
                <path d="M132.684291,23.0562585 C132.684291,24.2143317 133.351641,25.088478 134.292496,25.088478 C135.211299,25.088478 135.90053,24.2254293 135.90053,23.0344049 C135.90053,22.1385756 135.451983,21.0021854 134.314376,21.0021854 C133.176598,21.0021854 132.684291,22.0509902 132.684291,23.0562585 M136.884974,23.0016244 C136.884974,24.9573561 135.528735,25.8096488 134.248564,25.8096488 C132.815744,25.8096488 131.710786,24.7606732 131.710786,23.0888683 C131.710786,21.3188927 132.870274,20.2810146 134.336256,20.2810146 C135.85694,20.2810146 136.884974,21.3846244 136.884974,23.0016244" id="Fill-43" fill="#000000" mask="url(#mask-2)"></path>
                <path d="M138.417128,25.6894366 L138.417128,21.1331195 L137.673026,21.1331195 L137.673026,20.4011927 L138.417128,20.4011927 L138.417128,20.1498756 C138.417128,19.4068512 138.581231,18.7297293 139.029607,18.3035829 C139.390632,17.9539244 139.872,17.8118756 140.320547,17.8118756 C140.659521,17.8118756 140.955077,17.8883634 141.14106,17.9646805 L141.009607,18.7077049 C140.867556,18.6423146 140.670632,18.5876805 140.397128,18.5876805 C139.576615,18.5876805 139.368752,19.3086805 139.368752,20.1170951 L139.368752,20.4011927 L140.648752,20.4011927 L140.648752,21.1331195 L139.368752,21.1331195 L139.368752,25.6894366 L138.417128,25.6894366 Z" id="Fill-44" fill="#000000" mask="url(#mask-2)"></path>
                <path d="M143.011658,18.8825854 L143.011658,20.4012439 L144.389949,20.4012439 L144.389949,21.1331707 L143.011658,21.1331707 L143.011658,23.9849024 C143.011658,24.6405122 143.197641,25.0120244 143.733709,25.0120244 C143.985162,25.0120244 144.171145,24.9792439 144.291487,24.9464634 L144.335248,25.6676341 C144.149265,25.7439512 143.854051,25.7985854 143.482085,25.7985854 C143.033538,25.7985854 142.672684,25.6565366 142.442769,25.3944634 C142.169265,25.1103659 142.070803,24.6405122 142.070803,24.0176829 L142.070803,21.1331707 L141.250462,21.1331707 L141.250462,20.4012439 L142.070803,20.4012439 L142.070803,19.1337317 L143.011658,18.8825854 Z" id="Fill-45" fill="#000000" mask="url(#mask-2)"></path>
                <path d="M146.173043,20.401261 L146.873214,23.0889195 C147.026376,23.6789683 147.168598,24.2253098 147.266889,24.7716512 L147.29988,24.7716512 C147.420222,24.2364073 147.595094,23.6682122 147.770308,23.1000171 L148.63441,20.401261 L149.443983,20.401261 L150.264496,23.0452122 C150.461419,23.6789683 150.61441,24.2364073 150.734923,24.7716512 L150.767573,24.7716512 C150.855265,24.2364073 150.997487,23.6789683 151.172359,23.0563098 L151.927231,20.401261 L152.878855,20.401261 L151.172359,25.6895049 L150.297316,25.6895049 L149.487744,23.165578 C149.301761,22.5753585 149.148598,22.0510415 149.017487,21.4283829 L148.995436,21.4283829 C148.864154,22.0619683 148.700051,22.6083098 148.514068,23.1765049 L147.660906,25.6895049 L146.785692,25.6895049 L145.188598,20.401261 L146.173043,20.401261 Z" id="Fill-46" fill="#000000" mask="url(#mask-2)"></path>
                <path d="M156.806718,22.9907488 C155.756462,22.9688951 154.564154,23.1546512 154.564154,24.1817732 C154.564154,24.8044317 154.97988,25.0994561 155.472017,25.0994561 C156.161419,25.0994561 156.598855,24.6623829 156.752188,24.2143829 C156.784838,24.1160415 156.806718,24.0067732 156.806718,23.9086024 L156.806718,22.9907488 Z M156.94894,25.6895049 L156.872359,25.0229683 L156.839538,25.0229683 C156.544154,25.4381878 155.975436,25.8097 155.220564,25.8097 C154.148427,25.8097 153.60159,25.0557488 153.60159,24.2908707 C153.60159,23.0126024 154.739197,22.3132854 156.784838,22.3243829 L156.784838,22.2149439 C156.784838,21.7778707 156.664496,20.991139 155.58159,20.991139 C155.089282,20.991139 154.575094,21.1442854 154.203299,21.3846756 L153.984325,20.7509195 C154.421932,20.466822 155.056462,20.2810659 155.723812,20.2810659 C157.342786,20.2810659 157.736462,21.3846756 157.736462,22.4444073 L157.736462,24.4221634 C157.736462,24.8809195 157.758342,25.3287488 157.824154,25.6895049 L156.94894,25.6895049 Z" id="Fill-47" fill="#000000" mask="url(#mask-2)"></path>
                <path d="M159.509214,22.0510415 C159.509214,21.4283829 159.498274,20.8929683 159.465453,20.401261 L160.307846,20.401261 L160.340496,21.4393098 L160.384256,21.4393098 C160.62494,20.7290659 161.204769,20.2810659 161.850068,20.2810659 C161.959641,20.2810659 162.036222,20.291822 162.123744,20.3138463 L162.123744,21.2206024 C162.025282,21.1989195 161.926821,21.187822 161.795538,21.187822 C161.117248,21.187822 160.636051,21.7013829 160.504598,22.4225537 C160.482718,22.5536756 160.460838,22.7066512 160.460838,22.8705537 L160.460838,25.6895049 L159.509214,25.6895049 L159.509214,22.0510415 Z" id="Fill-48" fill="#000000" mask="url(#mask-2)"></path>
                <path d="M166.554479,22.5317366 C166.565248,21.9198341 166.302855,20.9695415 165.219778,20.9695415 C164.246274,20.9695415 163.819607,21.8653707 163.743026,22.5317366 L166.554479,22.5317366 Z M163.732085,23.2201268 C163.753966,24.5202488 164.585248,25.0556634 165.547983,25.0556634 C166.237214,25.0556634 166.65294,24.935639 167.013966,24.7826634 L167.177897,25.4708829 C166.838923,25.6238585 166.259094,25.7986878 165.416872,25.7986878 C163.786786,25.7986878 162.813111,24.7278585 162.813111,23.1327122 C162.813111,21.5375659 163.753966,20.2809805 165.29653,20.2809805 C167.024906,20.2809805 167.484222,21.7998098 167.484222,22.7721268 C167.484222,22.9689805 167.462513,23.1217854 167.451402,23.2201268 L163.732085,23.2201268 Z" id="Fill-49" fill="#000000" mask="url(#mask-2)"></path>
                <path d="M177.078496,25.3616488 C176.651829,25.5146244 175.809436,25.7659415 174.814051,25.7659415 C173.698325,25.7659415 172.77935,25.4818439 172.057299,24.7936244 C171.422769,24.181722 171.028923,23.1983073 171.028923,22.0509902 C171.040034,19.855039 172.549607,18.2487951 175.021915,18.2487951 C175.875077,18.2487951 176.542427,18.4345512 176.859692,18.5876976 L176.629949,19.363161 C176.236103,19.1885024 175.743795,19.0464537 175.000034,19.0464537 C173.206017,19.0464537 172.035419,20.1608195 172.035419,22.0074537 C172.035419,23.8757707 173.162256,24.9793805 174.879692,24.9793805 C175.503111,24.9793805 175.929778,24.8917951 176.148752,24.7825268 L176.148752,22.5864049 L174.649949,22.5864049 L174.649949,21.8216976 L177.078496,21.8216976 L177.078496,25.3616488 Z" id="Fill-50" fill="#000000" mask="url(#mask-2)"></path>
                <path d="M178.719949,22.0510415 C178.719949,21.4283829 178.709009,20.8929683 178.676188,20.401261 L179.518581,20.401261 L179.551231,21.4393098 L179.594991,21.4393098 C179.835675,20.7290659 180.415504,20.2810659 181.060803,20.2810659 C181.170376,20.2810659 181.246957,20.291822 181.334479,20.3138463 L181.334479,21.2206024 C181.236017,21.1989195 181.137556,21.187822 181.006274,21.187822 C180.327983,21.187822 179.846786,21.7013829 179.715333,22.4225537 C179.693453,22.5536756 179.671573,22.7066512 179.671573,22.8705537 L179.671573,25.6895049 L178.719949,25.6895049 L178.719949,22.0510415 Z" id="Fill-51" fill="#000000" mask="url(#mask-2)"></path>
                <path d="M182.997299,23.0562585 C182.997299,24.2143317 183.66465,25.088478 184.605504,25.088478 C185.524308,25.088478 186.213538,24.2254293 186.213538,23.0344049 C186.213538,22.1385756 185.764991,21.0021854 184.627385,21.0021854 C183.489607,21.0021854 182.997299,22.0509902 182.997299,23.0562585 M187.197983,23.0016244 C187.197983,24.9573561 185.841744,25.8096488 184.561573,25.8096488 C183.128752,25.8096488 182.023795,24.7606732 182.023795,23.0888683 C182.023795,21.3188927 183.183453,20.2810146 184.649265,20.2810146 C186.169949,20.2810146 187.197983,21.3846244 187.197983,23.0016244" id="Fill-52" fill="#000000" mask="url(#mask-2)"></path>
                <path d="M193.062068,24.2472146 C193.062068,24.7935561 193.072838,25.2743366 193.105829,25.6893854 L192.252667,25.6893854 L192.197795,24.8263366 L192.175915,24.8263366 C191.924462,25.2524829 191.366513,25.8095805 190.425658,25.8095805 C189.594376,25.8095805 188.598821,25.3508244 188.598821,23.4932634 L188.598821,20.4013122 L189.561385,20.4013122 L189.561385,23.329361 C189.561385,24.3346293 189.867709,25.011922 190.742923,25.011922 C191.388393,25.011922 191.836769,24.5640927 192.011812,24.1379463 C192.066684,23.9958976 192.099333,23.8210683 192.099333,23.6460683 L192.099333,20.4013122 L193.062068,20.4013122 L193.062068,24.2472146 Z" id="Fill-53" fill="#000000" mask="url(#mask-2)"></path>
                <path d="M195.830154,23.5371073 C195.830154,23.6789854 195.852034,23.810278 195.873915,23.9303024 C196.048957,24.596839 196.628786,25.0557659 197.317846,25.0557659 C198.335282,25.0557659 198.92588,24.2253268 198.92588,23.0126195 C198.92588,21.9528878 198.368103,21.0457902 197.350838,21.0457902 C196.694427,21.0457902 196.081778,21.5156439 195.895795,22.2368146 C195.862974,22.3570098 195.830154,22.4990585 195.830154,22.6301805 L195.830154,23.5371073 Z M194.87853,22.1275463 C194.87853,21.4500829 194.85665,20.9037415 194.834769,20.401278 L195.698872,20.401278 L195.742632,21.3080341 L195.764513,21.3080341 C196.158359,20.6633512 196.781778,20.2810829 197.646051,20.2810829 C198.92588,20.2810829 199.888615,21.3626683 199.888615,22.9689122 C199.888615,24.8700098 198.729128,25.8097171 197.481949,25.8097171 C196.781778,25.8097171 196.169128,25.5037659 195.852034,24.979278 L195.830154,24.979278 L195.830154,27.8526927 L194.87853,27.8526927 L194.87853,22.1275463 Z" id="Fill-54" fill="#000000" mask="url(#mask-2)"></path>
            </g>
        </g>
    </g>
</svg>