<?xml version="1.0" encoding="UTF-8"?>
<svg width="5px" height="8px" viewBox="0 0 5 8" version="1.1" xmlns="http://www.w3.org/2000/svg" xmlns:xlink="http://www.w3.org/1999/xlink">
    <!-- Generator: Sketch 59 (86127) - https://sketch.com -->
    <title>ico-pre</title>
    <desc>Created with Sketch.</desc>
    <g id="页面-3" stroke="none" stroke-width="1" fill="none" fill-rule="evenodd">
        <g id="iPhone-11-Pro" transform="translate(-141.000000, -578.000000)" fill="#FFFFFF" fill-rule="nonzero">
            <path d="M141.228662,578.206827 C140.926363,578.482597 140.923423,578.932423 141.222093,579.211542 C141.224073,579.213392 141.226064,579.215232 141.228065,579.217062 L144.270421,581.99849 L141.228065,584.779919 C140.926093,585.055992 140.923683,585.505821 141.222683,585.78464 C141.224665,585.786488 141.226658,585.788326 141.228662,585.790154 C141.535373,586.069949 142.028758,586.069949 142.33547,585.790154 L145.654289,582.762583 C146.11133,582.34565 146.115776,581.665564 145.66422,581.243567 C145.66093,581.240493 145.65762,581.237436 145.654289,581.234398 L142.33547,578.206827 C142.033171,577.931058 141.53096,577.931058 141.228662,578.206827 Z" id="ico-pre" transform="translate(143.500000, 582.000000) rotate(180.000000) translate(-143.500000, -582.000000) "></path>
        </g>
    </g>
</svg>