<?xml version="1.0" encoding="UTF-8"?>
<svg width="80px" height="24px" viewBox="0 0 80 24" version="1.1" xmlns="http://www.w3.org/2000/svg" xmlns:xlink="http://www.w3.org/1999/xlink">
    <!-- Generator: Sketch 59 (86127) - https://sketch.com -->
    <title>编组</title>
    <desc>Created with Sketch.</desc>
    <g id="页面-1" stroke="none" stroke-width="1" fill="none" fill-rule="evenodd">
        <g id="编组" fill-rule="nonzero">
            <path d="M9.18518519,12.48 C9.18518519,12.9700025 9.02963119,13.3724984 8.71851852,13.6875 C8.40740585,14.0025016 8.00987896,14.16 7.52592593,14.16 L2.05925926,14.16 L2.05925926,23.475 L0,23.475 L0,0 L7.52592593,0 C8.00987896,0 8.40740585,0.15499845 8.71851852,0.465 C9.02963119,0.77500155 9.18518519,1.17499755 9.18518519,1.665 L9.18518519,12.48 Z M20.4888889,21.78 C20.4888889,22.9100056 19.9308698,23.475 18.8148148,23.475 L13.8666667,23.475 C12.7604883,23.475 12.2074074,22.9100056 12.2074074,21.78 L12.2074074,10.575 C12.2074074,9.44499435 12.7604883,8.88 13.8666667,8.88 L18.8148148,8.88 C19.9308698,8.88 20.4888889,9.44499435 20.4888889,10.575 L20.4888889,21.78 Z M18.5185185,21.72 L18.5185185,10.635 L14.1777778,10.635 L14.1777778,21.72 L18.5185185,21.72 Z M31.2444444,13.68 L29.3037037,13.68 L29.3037037,10.665 L25.6740741,10.785 L25.6740741,23.475 L23.7037037,23.475 L23.7037037,8.88 L25.6740741,8.88 L25.6740741,9.285 C26.3259292,9.1849995 26.9827127,9.08000055 27.6444444,8.97 C28.4345719,8.8499994 29.0913554,8.79 29.6148148,8.79 C30.70124,8.79 31.2444444,9.33499455 31.2444444,10.425 L31.2444444,13.68 Z M38.9333333,23.475 L36.1333333,23.475 C35.027155,23.475 34.4740741,22.9100056 34.4740741,21.78 L34.4740741,10.635 L32.7407407,10.635 L32.7407407,8.88 L34.4740741,8.88 L34.4740741,4.335 L36.4148148,4.335 L36.4148148,8.88 L38.9333333,8.88 L38.9333333,10.635 L36.4148148,10.635 L36.4148148,21.72 L38.9333333,21.72 L38.9333333,23.475 Z M46.9037037,1.755 L44.1185185,1.755 L44.1185185,8.88 L46.5777778,8.88 L46.5777778,10.635 L44.1185185,10.635 L44.1185185,23.475 L42.1777778,23.475 L42.1777778,10.635 L40.5037037,10.635 L40.5037037,8.88 L42.1777778,8.88 L42.1777778,1.695 C42.1777778,0.56499435 42.7308587,0 43.837037,0 L46.9037037,0 L46.9037037,1.755 Z M56.9481481,21.78 C56.9481481,22.9100056 56.390129,23.475 55.2740741,23.475 L50.3259259,23.475 C49.2197476,23.475 48.6666667,22.9100056 48.6666667,21.78 L48.6666667,10.575 C48.6666667,9.44499435 49.2197476,8.88 50.3259259,8.88 L55.2740741,8.88 C56.390129,8.88 56.9481481,9.44499435 56.9481481,10.575 L56.9481481,21.78 Z M54.9777778,21.72 L54.9777778,10.635 L50.637037,10.635 L50.637037,21.72 L54.9777778,21.72 Z M62.2222222,23.475 L60.2814815,23.475 L60.2814815,0 L62.2222222,0 L62.2222222,23.475 Z M67.6592593,5.685 L65.6592593,5.685 L65.6592593,3.165 L67.6592593,3.165 L67.6592593,5.685 Z M67.6296296,23.475 L65.6888889,23.475 L65.6888889,8.88 L67.6296296,8.88 L67.6296296,23.475 Z M79.2592593,21.78 C79.2592593,22.9100056 78.7012401,23.475 77.5851852,23.475 L72.637037,23.475 C71.5308587,23.475 70.9777778,22.9100056 70.9777778,21.78 L70.9777778,10.575 C70.9777778,9.44499435 71.5308587,8.88 72.637037,8.88 L77.5851852,8.88 C78.7012401,8.88 79.2592593,9.44499435 79.2592593,10.575 L79.2592593,21.78 Z" id="Portfolio" fill="#000000"></path>
            <polygon id="路径" fill="#FCEEC0" points="7.12592593 12.3 7.12592593 1.845 2.05925926 1.845 2.05925926 12.3"></polygon>
            <polygon id="路径" fill="#FCEEC0" points="77.2888889 21.72 72.9481481 21.72 72.9481481 10.635 77.2888889 10.635"></polygon>
        </g>
    </g>
</svg>